<?xml version="1.0" encoding="utf-8"?>
<!-- Generator: Adobe Illustrator 19.0.0, SVG Export Plug-In . SVG Version: 6.00 Build 0)  -->
<svg version="1.1" id="Layer_1" xmlns="http://www.w3.org/2000/svg" xmlns:xlink="http://www.w3.org/1999/xlink" x="0px" y="0px"
	 viewBox="-155 247 300 300" style="enable-background:new -155 247 300 300;" xml:space="preserve">
<style type="text/css">
	.st0{fill:none;stroke:#FFFFFF;stroke-width:18;stroke-miterlimit:10;}
</style>
<g>
	<g>
		<g>
			<path class="st0" d="M-35.1,457.4c-0.7-0.7-1.5-1.1-2.5-1.3l-95.5-19.1l67.6-70.1c0.7-0.7,1.1-1.5,1.3-2.5l19.1-95.5l70.1,67.6
				c0.7,0.7,1.5,1.1,2.5,1.3l95.5,19.1l-67.6,70.1c-0.7,0.7-1.1,1.5-1.3,2.5L35,525L-35.1,457.4z"/>
		</g>
	</g>
	<g>
		<g>
			<path class="st0" d="M18.7,389.6c-4.1-13.1-18.1-20.5-31.2-16.4s-20.5,18.1-16.4,31.2c4.1,13.1,18.1,20.5,31.2,16.4
				C15.5,416.7,22.8,402.7,18.7,389.6z"/>
		</g>
	</g>
</g>
</svg>
