<?xml version="1.0" encoding="utf-8"?>
<!-- Generator: Adobe Illustrator 19.0.0, SVG Export Plug-In . SVG Version: 6.00 Build 0)  -->
<svg version="1.1" id="Layer_1" xmlns="http://www.w3.org/2000/svg" xmlns:xlink="http://www.w3.org/1999/xlink" x="0px" y="0px"
	 viewBox="731 247 300 300" style="enable-background:new 731 247 300 300;" xml:space="preserve">
<style type="text/css">
	.st0{fill:none;stroke:#7F00FF;stroke-width:18;stroke-miterlimit:10;}
</style>
<g>
	<g>
		<g>
			<path class="st0" d="M855.5,448.3c-0.6-0.6-1.3-0.9-2.1-1.1L772.3,431l57.4-59.6c0.6-0.6,0.9-1.3,1.1-2.1l16.2-81.1l59.6,57.4
				c0.6,0.6,1.3,0.9,2.1,1.1l81.1,16.2l-57.4,59.6c-0.6,0.6-0.9,1.3-1.1,2.1L915,505.7L855.5,448.3z"/>
		</g>
	</g>
	<g>
		<g>
			<path class="st0" d="M901.2,390.7c-3.5-11.1-15.4-17.4-26.5-13.9c-11.1,3.5-17.4,15.4-13.9,26.5c3.5,11.1,15.4,17.4,26.5,13.9
				C898.5,413.7,904.7,401.8,901.2,390.7z"/>
		</g>
	</g>
</g>
</svg>
