<?xml version="1.0" encoding="utf-8"?>
<!-- Generator: Adobe Illustrator 19.0.0, SVG Export Plug-In . SVG Version: 6.00 Build 0)  -->
<svg version="1.1" id="Layer_1" xmlns="http://www.w3.org/2000/svg" xmlns:xlink="http://www.w3.org/1999/xlink" x="0px" y="0px"
	 viewBox="194 247 1000 300" style="enable-background:new 194 247 1000 300;" xml:space="preserve">
<style type="text/css">
	.st0{fill:#444F60;}
	.st1{fill:none;stroke:#039BE5;stroke-width:18;stroke-miterlimit:10;}
</style>
<g>
	<g>
		<path class="st0" d="M518.8,441.3c-9.7-4.8-17.1-11.5-22.2-20.4c-5.2-8.8-7.7-19-7.7-30.6c0-16.1,3.1-30.5,9.2-43
			c6.1-12.6,14.3-22.2,24.8-29.1c10.4-6.9,22-10.3,34.8-10.3c11.9,0,20.9,3.1,27,9.2s9.3,14.2,9.3,24.1c0,6.7-1.2,12.1-3.6,16.1
			s-5.8,6.1-10.1,6.1c-3.1,0-5.5-0.7-7.2-2.1c-1.8-1.4-2.6-3.5-2.6-6.3c0-1,0.3-2.8,0.7-5.4c0.7-3.3,1-5.9,1-7.9c0-10-5.3-15-16-15
			c-7.2,0-14.2,2.4-20.8,7c-6.6,4.8-11.9,11.7-16,20.9c-4.1,9.2-6.1,20.1-6.1,32.7c0,13.2,3.6,23.3,11,30.6
			c7.4,7.2,18.2,10.8,32.6,10.8c7.1,0,14.3-0.9,21.6-2.7s15.4-4.6,24.3-8.3c1.6-0.7,3.1-1,4.2-1c1.8,0,3.1,0.7,4,2
			c0.8,1.4,1.4,3.1,1.4,5.1c0,6.7-3.6,11.6-10.9,14.9c-7.8,3.4-15.9,5.9-24.3,7.5c-8.4,1.6-16.4,2.4-23.9,2.4
			C539.8,448.4,528.5,446,518.8,441.3z"/>
		<path class="st0" d="M620.1,448.2c-3.1-2.6-4.5-5.6-4.5-8.9c0-2.9,1-5.3,3.1-7.4s5.2-3.1,9.3-3.1c1.4,0,3.1,0.2,5,0.4
			c2,0.3,3.4,0.5,4.3,0.6c-0.1-2.9-0.8-5.5-1.9-8.1c-1.2-2.5-2.6-5-4.3-7.3c-1.8-2.4-3.4-4.4-4.9-6.2c-3.4,6.5-6.8,11.9-10.1,16.1
			s-7,8.3-10.9,12.2c-2,2-4.1,3-6.3,3c-1.8,0-3.2-0.6-4.2-1.9c-1.1-1.3-1.6-2.8-1.6-4.7c0-2.2,0.8-4.2,2.3-6.1l2.1-2.6
			c6-7.5,10.6-13.6,13.7-18.4c1.9-3.2,4.1-7.5,6.6-12.7c2.5-5.3,5-10.9,7.4-16.6c2.1-4.8,6.5-7.2,13-7.2c3.1,0,5.2,0.3,6.5,0.8
			c1.2,0.5,1.8,1.4,1.8,2.6c0,0.7-0.3,1.7-0.7,3.1s-1,2.9-1.8,4.2c-2,4-3,7.3-3,10c0,1.6,0.6,3.5,1.7,5.4c1.2,2,3,4.4,5.3,7.4
			c3.5,4.6,6.2,8.6,8,11.8c1.8,3.2,2.7,6.8,2.7,10.6c0,1.1-0.1,2.6-0.3,4.6c5.3-2.1,11.7-7.6,18.9-16.6c1.4-1.5,2.8-2.3,4.4-2.3
			c1.4,0,2.5,0.7,3.4,2c0.8,1.4,1.3,3.1,1.3,5.4c0,4.2-1,7.6-3.1,10.2c-5.5,6.8-10.8,11.5-15.7,13.9c-5,2.5-11.2,3.8-18.5,4.1
			c-4.4,3.7-9.6,5.6-15.6,5.6C627.5,452.1,623,450.8,620.1,448.2z"/>
		<path class="st0" d="M690.4,448.2c-3.1-2.6-4.5-5.6-4.5-8.9c0-2.9,1-5.3,3.1-7.4s5.2-3.1,9.3-3.1c1.4,0,3.1,0.2,5,0.4
			c2,0.3,3.4,0.5,4.3,0.6c-0.1-2.9-0.8-5.5-1.9-8.1c-1.2-2.5-2.6-5-4.3-7.3c-1.8-2.4-3.4-4.4-4.9-6.2c-3.4,6.5-6.8,11.9-10.1,16.1
			s-7,8.3-10.9,12.2c-2,2-4.1,3-6.3,3c-1.8,0-3.2-0.6-4.2-1.9c-1.1-1.3-1.6-2.8-1.6-4.7c0-2.2,0.8-4.2,2.3-6.1l2.1-2.6
			c6-7.5,10.6-13.6,13.7-18.4c1.9-3.2,4.1-7.5,6.6-12.7c2.5-5.3,5-10.9,7.4-16.6c2.1-4.8,6.5-7.2,13-7.2c3.1,0,5.2,0.3,6.5,0.8
			c1.2,0.5,1.8,1.4,1.8,2.6c0,0.7-0.3,1.7-0.7,3.1s-1,2.9-1.8,4.2c-2,4-3,7.3-3,10c0,1.6,0.6,3.5,1.7,5.4c1.2,2,3,4.4,5.3,7.4
			c3.5,4.6,6.2,8.6,8,11.8c1.8,3.2,2.7,6.8,2.7,10.6c0,1.1-0.1,2.6-0.3,4.6c5.3-2.1,11.7-7.6,18.9-16.6c1.4-1.5,2.8-2.3,4.4-2.3
			c1.4,0,2.5,0.7,3.4,2c0.8,1.4,1.3,3.1,1.3,5.4c0,4.2-1,7.6-3.1,10.2c-5.5,6.8-10.8,11.5-15.7,13.9c-5,2.5-11.2,3.8-18.5,4.1
			c-4.4,3.7-9.6,5.6-15.6,5.6C697.8,452.1,693.4,450.8,690.4,448.2z"/>
		<path class="st0" d="M789.7,441.9c-1.7-4.4-2.5-11.5-2.5-21c0-14.3,2-27.8,6.1-40.7c1-3.2,2.6-5.5,4.8-7c2.3-1.4,5.4-2.2,9.5-2.2
			c2.2,0,3.7,0.3,4.6,0.8c0.8,0.5,1.4,1.6,1.4,3.1c0,1.8-0.8,5.7-2.5,11.9c-1.1,4.4-2,8.2-2.6,11.5s-1.2,7.4-1.6,12.2
			c3.6-9.4,7.7-17.1,12.2-23.1c4.5-5.9,8.9-10.2,13.2-12.6c4.3-2.5,8.3-3.8,12-3.8c7.1,0,10.7,3.6,10.7,10.7
			c0,4.2-1.2,12.1-3.6,23.3c-2.1,9.6-3.1,15.9-3.1,18.9c0,4.4,1.6,6.6,4.8,6.6c2.2,0,4.8-1.4,7.8-4.1c3.1-2.7,7-7,12.1-13.1
			c1.4-1.5,2.8-2.3,4.4-2.3c1.4,0,2.5,0.7,3.4,2c0.8,1.4,1.3,3.1,1.3,5.4c0,4.4-1,7.8-3.1,10.2c-4.8,5.9-9.8,10.6-15.3,14.3
			s-11.6,5.6-18.5,5.6c-5.6,0-9.8-1.6-12.6-4.8c-2.9-3.2-4.2-7.9-4.2-14.1c0-3.1,0.8-8.6,2.3-16.5c1.4-7,2.1-11.7,2.1-14.3
			c0-1.8-0.6-2.6-1.8-2.6c-1.4,0-3.4,1.9-6,5.5c-2.5,3.6-5.2,8.6-7.9,14.6s-4.8,12.4-6.5,19.1c-1.2,5.2-2.6,8.7-4.2,10.4
			s-4.1,2.7-7.5,2.7C794.4,448.4,791.4,446.3,789.7,441.9z"/>
		<path class="st0" d="M873.3,440.9c-3.2-5.1-4.8-11.7-4.8-20.1c0-4.9,0.6-11.3,1.9-19c1.3-7.7,2.9-14.9,4.8-21.6
			c1-3.5,2.3-5.9,4-7.2c1.7-1.3,4.2-2,7.9-2c5.6,0,8.4,1.9,8.4,5.6c0,2.7-1,9.1-3.1,19.1c-2.6,12.1-4,20.3-4,24.5
			c0,3.3,0.4,5.9,1.4,7.6c0.8,1.8,2.4,2.6,4.4,2.6s4.4-1.4,7.4-4.2c3-2.7,7-7,11.9-13c1.4-1.5,2.8-2.3,4.4-2.3c1.4,0,2.5,0.7,3.4,2
			c0.8,1.4,1.3,3.1,1.3,5.4c0,4.4-1,7.8-3.1,10.2c-10.9,13.3-21,19.9-30.5,19.9C881.7,448.4,876.6,446,873.3,440.9z M879.8,356.7
			c-2.3-2.1-3.5-5.1-3.5-9c0-3.8,1.5-7,4.5-9.7c3.1-2.5,6.8-3.9,11.3-3.9c4.1,0,7.4,1,9.8,3c2.5,2,3.8,4.8,3.8,8.4
			c0,4.4-1.4,7.9-4.2,10.4c-2.9,2.5-6.6,3.9-11.4,3.9C885.6,360,882.1,358.9,879.8,356.7z"/>
		<path class="st0" d="M912,441.9c-1.7-4.4-2.5-11.5-2.5-21c0-14.3,2-27.8,6.1-40.7c1-3.2,2.6-5.5,4.8-7c2.3-1.4,5.4-2.2,9.5-2.2
			c2.2,0,3.7,0.3,4.6,0.8c0.8,0.5,1.4,1.6,1.4,3.1c0,1.8-0.8,5.7-2.5,11.9c-1.1,4.4-2,8.2-2.6,11.5c-0.7,3.3-1.2,7.4-1.6,12.2
			c3.6-9.4,7.7-17.1,12.2-23.1c4.5-5.9,8.9-10.2,13.2-12.6c4.3-2.5,8.3-3.8,12-3.8c7.1,0,10.7,3.6,10.7,10.7
			c0,4.2-1.2,12.1-3.6,23.3c-2.1,9.6-3.1,15.9-3.1,18.9c0,4.4,1.6,6.6,4.8,6.6c2.2,0,4.8-1.4,7.8-4.1c3.1-2.7,7-7,12.1-13.1
			c1.4-1.5,2.8-2.3,4.4-2.3c1.4,0,2.5,0.7,3.4,2c0.8,1.4,1.3,3.1,1.3,5.4c0,4.4-1,7.8-3.1,10.2c-4.8,5.9-9.8,10.6-15.3,14.3
			s-11.6,5.6-18.5,5.6c-5.6,0-9.8-1.6-12.6-4.8c-2.9-3.2-4.2-7.9-4.2-14.1c0-3.1,0.8-8.6,2.3-16.5c1.4-7,2.1-11.7,2.1-14.3
			c0-1.8-0.6-2.6-1.8-2.6c-1.4,0-3.4,1.9-6,5.5c-2.5,3.6-5.2,8.6-7.9,14.6s-4.8,12.4-6.5,19.1c-1.2,5.2-2.6,8.7-4.2,10.4
			c-1.6,1.8-4.1,2.7-7.5,2.7C916.6,448.4,913.7,446.3,912,441.9z"/>
		<path class="st0" d="M1041.6,413.3c0.8,1.4,1.3,3.1,1.3,5.2c0,2.5-0.4,4.5-1.2,5.9c-0.8,1.4-2,2.7-3.6,3.8
			c-7.7,5.1-18,12.1-30.8,21c-4.2,22.8-9.8,40.8-16.6,53.9c-6.8,13.1-15.4,19.6-26.1,19.6c-5.7,0-10.3-1.7-13.7-5.2
			c-3.5-3.5-5.2-8-5.2-13.6c0-7.8,3.1-16.1,9.1-25c6-8.8,17.4-19.8,34.1-32.7l1.2-8.4c1.5-10.5,2.7-21,3.6-31.1
			c0.7-5.9,1.7-14.8,3.1-26.6c0.4-3.2,1.6-5.5,3.6-7s5-2.2,9.1-2.2c3.3,0,5.4,0.5,6.5,1.4c1,1,1.5,2.4,1.5,4.2
			c0,5.1-1.8,19-5.4,41.8l-1.6,11.4c8.8-6.6,16.8-12.3,24-17.1c1.4-0.8,2.7-1.4,3.8-1.4C1039.6,411.2,1040.7,411.9,1041.6,413.3z
			 M975.7,496.9c3.4-6.5,6.6-16.9,9.6-31.3c-8.3,7.1-14.3,13.6-18.1,19.4c-3.6,5.8-5.5,10.9-5.5,15.3c0,4.2,1.5,6.5,4.6,6.5
			C969.2,506.6,972.3,503.4,975.7,496.9z M998.1,356.7c-2.3-2.1-3.5-5.1-3.5-9c0-3.8,1.5-7,4.5-9.7c3.1-2.5,6.8-3.9,11.3-3.9
			c4.1,0,7.4,1,9.8,3c2.5,2,3.8,4.8,3.8,8.4c0,4.4-1.4,7.9-4.2,10.4c-2.9,2.5-6.6,3.9-11.4,3.9C1003.9,360,1000.4,358.9,998.1,356.7
			z"/>
		<path class="st0" d="M1035,441c-4.1-4.9-6.1-11.5-6.1-19.4c0-8.8,2-17.1,6.1-25s9.5-14.2,16.2-18.9c6.8-4.8,13.9-7.1,21.5-7.1
			c2.4,0,4.1,0.5,4.8,1.4c0.8,0.9,1.5,2.6,2,5c2.3-0.4,4.8-0.7,7.2-0.7c5.3,0,8.1,2,8.1,5.8c0,2.3-0.8,7.8-2.5,16.5
			c-2.5,12.6-3.8,21.4-3.8,26.4c0,1.6,0.4,3,1.3,4s1.9,1.4,3.2,1.4c2.1,0,4.6-1.4,7.6-4.1s7-7,12.1-13.1c1.4-1.5,2.8-2.3,4.4-2.3
			c1.4,0,2.5,0.7,3.4,2c0.8,1.4,1.3,3.1,1.3,5.4c0,4.4-1,7.8-3.1,10.2c-4.5,5.6-9.3,10.4-14.3,14.2c-5.1,3.8-9.9,5.8-14.7,5.8
			c-3.6,0-7-1.3-9.9-3.7c-3.1-2.5-5.3-5.9-6.9-10.1c-5.7,9.3-12.9,13.8-21.6,13.8C1044.5,448.4,1039.1,446,1035,441z M1064.1,427.5
			c2.2-2.9,3.8-6.6,4.8-11.4l6.1-30.3c-4.6,0.1-8.9,1.9-12.7,5.2c-3.9,3.3-7,7.8-9.3,13.2c-2.3,5.5-3.5,11.3-3.5,17.5
			c0,3.4,0.7,5.9,2,7.6c1.4,1.6,3.2,2.5,5.7,2.5C1059.6,431.8,1062,430.4,1064.1,427.5z"/>
		<path class="st0" d="M1132,444.5c-2.5-2.6-3.7-6.1-3.7-10.4c0-4.9,1.4-8.9,4.2-11.9c2.8-3,6.7-4.4,11.8-4.4
			c4.8,0,8.5,1.2,10.9,3.6c2.5,2.4,3.7,5.9,3.7,10.4c0,5.1-1.4,9.1-4.2,12.1c-2.9,3.1-6.8,4.5-11.7,4.5
			C1138.1,448.4,1134.4,447.1,1132,444.5z"/>
	</g>
	<g>
		<g>
			<g>
				<path class="st1" d="M304.7,445.5c-0.6-0.6-1.3-0.9-2.1-1.1l-81.1-16.2l57.4-59.6c0.6-0.6,0.9-1.3,1.1-2.1l16.2-81.1l59.6,57.4
					c0.6,0.6,1.3,0.9,2.1,1.1l81.1,16.2l-57.4,59.6c-0.6,0.6-0.9,1.3-1.1,2.1l-16.2,81.1L304.7,445.5z"/>
			</g>
		</g>
		<g>
			<g>
				<path class="st1" d="M350.4,387.8c-3.5-11.1-15.4-17.4-26.5-13.9s-17.4,15.4-13.9,26.5s15.4,17.4,26.5,13.9
					C347.7,410.8,353.9,398.9,350.4,387.8z"/>
			</g>
		</g>
	</g>
</g>
</svg>
